<?xml version="1.0" encoding="UTF-8"?>
<svg width="280px" height="95px" viewBox="0 0 280 95" version="1.1" xmlns="http://www.w3.org/2000/svg" xmlns:xlink="http://www.w3.org/1999/xlink">
    <!-- Generator: Sketch 49.1 (51147) - http://www.bohemiancoding.com/sketch -->
    <title>App Store</title>
    <desc>Created with Sketch.</desc>
    <defs></defs>
    <g id="Page-1" stroke="none" stroke-width="1" fill="none" fill-rule="evenodd">
        <g id="landing-page" transform="translate(-372.000000, -813.000000)">
            <g id="App-Store" transform="translate(372.000000, 813.000000)">
                <g>
                    <rect id="background" fill="#000000" x="0" y="0" width="280" height="94.8837209" rx="14"></rect>
                    <g id="icon" transform="translate(24.186047, 16.744186)" fill="#FFFFFF">
                        <path d="M37.6155518,28.3097277 C37.5538664,21.5845235 43.2289233,18.3126897 43.4884274,18.1603658 C40.2744053,13.5635229 35.2927773,12.9354477 33.5421882,12.8853686 C29.3582163,12.4534364 25.2997423,15.3413305 23.1684054,15.3413305 C20.9945267,15.3413305 17.712438,12.9271011 14.1750993,12.9980465 C9.62314208,13.0669053 5.36472231,15.6522382 3.0291854,19.6669117 C-1.79078423,27.852756 1.8039857,39.8821703 6.42188247,46.4988698 C8.73189439,49.7414907 11.4311625,53.3576182 14.964247,53.2303339 C18.4207566,53.0926164 19.7118958,51.0685866 23.8831052,51.0685866 C28.0160271,51.0685866 29.2284643,53.2303339 32.8317425,53.1468687 C36.5413749,53.0926164 38.8769119,49.8938146 41.1060946,46.6219809 C43.7755836,42.9119551 44.8476333,39.2499218 44.8901749,39.0621252 C44.8050916,39.034999 37.6878726,36.3703742 37.6155518,28.3097277" id="Fill-2"></path>
                        <path d="M30.8088868,8.53266116 C32.6679572,6.25197603 33.9399527,3.1491592 33.5868569,0.000436539105 C30.8960972,0.117287745 27.5310522,1.82623662 25.5932798,4.05684267 C23.878851,6.02244688 22.3473514,9.24420154 22.7429888,12.2739864 C25.7655735,12.495169 28.8689873,10.7778736 30.8088868,8.53266116" id="Fill-3"></path>
                    </g>
                    <g transform="translate(86.511628, 40.930233)" fill="#FFFFFF">
                        <path d="M24.3291122,29.0112881 L19.5556994,29.0112881 L16.9409369,20.8155438 L7.85232524,20.8155438 L5.36157482,29.0112881 L0.714275939,29.0112881 L9.72091353,1.10927584 L15.2825385,1.10927584 L24.3291122,29.0112881 L24.3291122,29.0112881 Z M16.1527247,17.3770631 L13.7880883,10.0933548 C13.5379623,9.3469529 13.0671369,7.59416644 12.377714,4.8349954 L12.293638,4.8349954 C12.0161873,6.02169054 11.5726866,7.77447701 10.9652378,10.0933548 L8.6405374,17.3770631 L16.1527247,17.3770631 L16.1527247,17.3770631 Z" id="Fill-4"></path>
                        <path d="M47.4457984,18.7042328 C47.4457984,22.1259403 46.5146571,24.8305989 44.6502726,26.8161118 C42.9813647,28.5835747 40.9067903,29.4662578 38.4328551,29.4662578 C35.7613413,29.4662578 33.8402056,28.5164824 32.6736516,26.6106416 L32.6736516,37.1671965 L28.1924027,37.1671965 L28.1924027,15.5047685 C28.1924027,13.3557181 28.1356514,11.1521552 28.0263527,8.89198321 L31.9674135,8.89198321 L32.2175395,12.083061 L32.3016154,12.083061 C33.7960657,9.67822116 36.0640148,8.47684957 39.1075647,8.47684957 C41.4869144,8.47684957 43.4732091,9.41404521 45.0622448,11.2905331 C46.6491786,13.1712143 47.4457984,15.6410498 47.4457984,18.7042328 L47.4457984,18.7042328 Z M42.8804735,18.8677703 C42.8804735,16.9095136 42.4390747,15.2951051 41.5520733,14.0245445 C40.5830978,12.7015681 39.2820223,12.036935 37.6509486,12.036935 C36.5453497,12.036935 35.5406419,12.4059427 34.643131,13.1355715 C33.7435182,13.8672969 33.1549865,14.8254589 32.8796377,16.0142507 C32.7409123,16.5656656 32.6715497,17.016442 32.6715497,17.3728699 L32.6715497,20.7316784 C32.6715497,22.190936 33.1213561,23.4258538 34.0209689,24.4364316 C34.9205817,25.4428162 36.0892376,25.9481051 37.5269366,25.9481051 C39.2147615,25.9481051 40.5284485,25.2960518 41.4679974,24.0024283 C42.4096481,22.7046115 42.8804735,20.9937577 42.8804735,18.8677703 L42.8804735,18.8677703 Z" id="Fill-5"></path>
                        <path d="M70.6444586,18.7042328 C70.6444586,22.1259403 69.7133173,24.8305989 67.8489328,26.8161118 C66.177923,28.5835747 64.1054505,29.4662578 61.6294134,29.4662578 C58.9600016,29.4662578 57.0388658,28.5164824 55.8702099,26.6106416 L55.8702099,37.1671965 L51.388961,37.1671965 L51.388961,15.5047685 C51.388961,13.3557181 51.3322098,11.1521552 51.222911,8.89198321 L55.1639718,8.89198321 L55.4140978,12.083061 L55.4981738,12.083061 C56.9905221,9.67822116 59.2584712,8.47684957 62.304123,8.47684957 C64.6813709,8.47684957 66.6697674,9.41404521 68.260905,11.2905331 C69.8457369,13.1712143 70.6444586,15.6410498 70.6444586,18.7042328 L70.6444586,18.7042328 Z M66.0770319,18.8677703 C66.0770319,16.9095136 65.6335312,15.2951051 64.7465298,14.0245445 C63.7796562,12.7015681 62.4806825,12.036935 60.8496088,12.036935 C59.7440099,12.036935 58.7393022,12.4059427 57.8375874,13.1355715 C56.9400765,13.8672969 56.3515448,14.8254589 56.076196,16.0142507 C55.9395726,16.5656656 55.8660061,17.016442 55.8660061,17.3728699 L55.8660061,20.7316784 C55.8660061,22.190936 56.3179144,23.4258538 57.2133234,24.4364316 C58.1129362,25.4407195 59.2815921,25.9481051 60.7234949,25.9481051 C62.4134218,25.9481051 63.7271087,25.2960518 64.6645557,24.0024283 C65.6062065,22.7046115 66.0770319,20.9937577 66.0770319,18.8677703 L66.0770319,18.8677703 Z" id="Fill-6"></path>
                        <path d="M96.5818933,21.1866481 C96.5818933,23.5600384 95.7516432,25.4910388 94.0953467,26.9817459 C92.2751021,28.6087343 89.7339061,29.4243251 86.4759625,29.4243251 C83.466043,29.4243251 81.0530629,28.845654 79.2328183,27.6862151 L80.2690545,23.9604956 C82.2343302,25.1199345 84.3929805,25.7007022 86.7429037,25.7007022 C88.4328306,25.7007022 89.7465175,25.3191147 90.6839645,24.5622297 C91.6256153,23.8011513 92.0985426,22.7884769 92.0985426,21.5221096 C92.0985426,20.3878303 91.7075893,19.4359583 90.9340905,18.6623001 C90.1584897,17.8928352 88.8763313,17.171593 87.0771057,16.5132497 C82.1796808,14.6912743 79.7288664,12.0243552 79.7288664,8.5208789 C79.7288664,6.23135399 80.5948489,4.35696273 82.320508,2.89141519 C84.0482691,1.42796429 86.3393391,0.69623884 89.1895142,0.69623884 C91.734914,0.69623884 93.8557302,1.13862873 95.5393514,2.02131186 L94.4148354,5.66526267 C92.8300035,4.80983578 91.0412873,4.38212234 89.0402794,4.38212234 C87.4596513,4.38212234 86.2174289,4.76999973 85.3325294,5.54156123 C84.5863552,6.23135399 84.2059115,7.07210444 84.2059115,8.07010247 C84.2059115,9.1708356 84.6368008,10.0849683 85.4964775,10.7999206 C86.2405498,11.4624571 87.5983766,12.1816028 89.5615504,12.9531643 C91.9703267,13.9218094 93.7380239,15.0497988 94.8730494,16.345519 C96.0143806,17.6412391 96.5818933,19.2577443 96.5818933,21.1866481" id="Fill-7"></path>
                        <path d="M111.436014,12.2465985 L106.496551,12.2465985 L106.496551,22.0148187 C106.496551,24.4993306 107.366738,25.7384416 109.111314,25.7384416 C109.912137,25.7384416 110.576337,25.6713493 111.101812,25.5308748 L111.225824,28.9253261 C110.343027,29.2544977 109.180676,29.4201319 107.742977,29.4201319 C105.971077,29.4201319 104.590129,28.8792002 103.589625,27.8036267 C102.593325,26.7259565 102.095175,24.9207542 102.095175,22.3796331 L102.095175,12.2382119 L99.1546178,12.2382119 L99.1546178,8.88359667 L102.095175,8.88359667 L102.095175,5.19980981 L106.496551,3.87473678 L106.496551,8.88359667 L111.436014,8.88359667 L111.436014,12.2465985" id="Fill-8"></path>
                        <path d="M133.67831,18.7860015 C133.67831,21.8785375 132.793411,24.4175619 131.02151,26.4030748 C129.169737,28.4451968 126.706311,29.4662578 123.635436,29.4662578 C120.671759,29.4662578 118.31553,28.4871295 116.558342,26.5288729 C114.801155,24.5706162 113.922561,22.1007807 113.922561,19.1214631 C113.922561,16.0037675 114.832683,13.4500667 116.640316,11.4645538 C118.452153,9.47904088 120.89456,8.48313948 123.965435,8.48313948 C126.92701,8.48313948 129.302156,9.46646107 131.103484,11.4226211 C132.822837,13.3242686 133.67831,15.7752344 133.67831,18.7860015 L133.67831,18.7860015 Z M129.033113,18.8887366 C129.033113,17.0457949 128.633753,15.4649325 127.832929,14.1419561 C126.89338,12.5443206 125.546063,11.7475994 123.80569,11.7475994 C122.01277,11.7475994 120.631823,12.5443206 119.696478,14.1419561 C118.89145,15.4649325 118.494191,17.0730511 118.494191,18.972602 C118.494191,20.8176404 118.89145,22.4026961 119.696478,23.7193826 C120.665453,25.3191147 122.016974,26.1179325 123.769958,26.1179325 C125.480904,26.1179325 126.824017,25.300245 127.797197,23.6816432 C128.619039,22.3272173 129.033113,20.7358717 129.033113,18.8887366 L129.033113,18.8887366 Z" id="Fill-9"></path>
                        <path d="M148.250777,12.8231729 C147.807276,12.7414042 147.332247,12.7015681 146.838301,12.7015681 C145.261876,12.7015681 144.042775,13.2907224 143.1852,14.4816109 C142.439026,15.5299281 142.06699,16.8550011 142.06699,18.4547333 L142.06699,29.0112881 L137.585741,29.0112881 L137.585741,15.2280128 C137.585741,12.9112316 137.541601,10.7957274 137.455423,8.89407984 L141.35865,8.89407984 L141.522598,12.7435008 L141.64661,12.7435008 C142.121639,11.4205245 142.865711,10.3533375 143.887234,9.55661635 C144.887738,8.83537408 145.963911,8.47684957 147.126261,8.47684957 C147.540335,8.47684957 147.914473,8.50829909 148.246573,8.55861832 L148.250777,12.8231729" id="Fill-10"></path>
                        <path d="M168.292385,17.9997636 C168.292385,18.800678 168.239837,19.4757943 168.128436,20.0272092 L154.686792,20.0272092 C154.735135,22.0148187 155.388826,23.5369754 156.635252,24.5852927 C157.768176,25.5203917 159.235301,25.9900378 161.032425,25.9900378 C163.022923,25.9900378 164.838964,25.6755426 166.47214,25.0381657 L167.174174,28.1411848 C165.26565,28.9693554 163.010312,29.3844891 160.412365,29.3844891 C157.284739,29.3844891 154.829721,28.4661632 153.043107,26.6337046 C151.262798,24.7991494 150.367389,22.3314105 150.367389,19.2451645 C150.367389,16.213431 151.195537,13.6869864 152.860241,11.6721206 C154.600614,9.52097357 156.952639,8.44540005 159.912113,8.44540005 C162.819039,8.44540005 165.019728,9.52097357 166.512076,11.6721206 C167.697547,13.3766845 168.292385,15.4900921 168.292385,17.9997636 L168.292385,17.9997636 Z M164.019224,16.8403247 C164.050752,15.513155 163.756486,14.3725859 163.149037,13.4039407 C162.373437,12.1585398 161.179558,11.537936 159.580013,11.537936 C158.112887,11.537936 156.92111,12.1438634 156.01309,13.3599114 C155.266916,14.3264599 154.823415,15.4900921 154.686792,16.8361314 L164.019224,16.8403247 L164.019224,16.8403247 Z" id="Fill-11"></path>
                    </g>
                    <g id="Available-on-the" transform="translate(88.372093, 16.744186)" fill="#FFFFFF">
                        <path d="M12.2467616,15.8007576 L9.90658904,15.8007576 L8.62651256,11.5866033 L4.17452807,11.5866033 L2.95311304,15.8007576 L0.675792033,15.8007576 L5.08797054,1.45157312 L7.81153751,1.45157312 L12.2467616,15.8007576 L12.2467616,15.8007576 Z M8.24102308,9.81845733 L7.08245959,6.07156739 C6.9609466,5.68766473 6.73677608,4.79481684 6.39109258,3.36889268 L6.34919155,3.36889268 C6.20672805,3.98533066 6.00350805,4.88037229 5.69763053,6.07156739 L4.56001755,9.81845733 L8.24102308,9.81845733 L8.24102308,9.81845733 Z" id="Fill-12"></path>
                        <path d="M23.2793029,5.45512941 L19.5375409,15.8007576 L17.4026834,15.8007576 L13.7824344,5.45512941 L16.1414624,5.45512941 L17.8300739,10.9262907 C18.1150009,11.8410759 18.3580269,12.7141802 18.5402964,13.54341 L18.6010529,13.54341 C18.7644669,12.7997357 19.0074928,11.9266314 19.3112753,10.9262907 L20.9789363,5.45512941 L23.2793029,5.45512941" id="Fill-13"></path>
                        <path d="M31.2446888,15.8007576 L31.0812748,14.6095625 L31.0205183,14.6095625 C30.3501018,15.5682223 29.3738078,16.0354867 28.1335373,16.0354867 C26.3653138,16.0354867 25.1040928,14.7367988 25.1040928,12.9905902 C25.1040928,10.437089 27.2179998,9.1164639 30.8780548,9.1164639 L30.8780548,8.92560944 C30.8780548,7.56330343 30.1866878,6.88105357 28.8249043,6.88105357 C27.8486103,6.88105357 26.9938292,7.13771992 26.2438008,7.64885888 L25.7975548,6.13737928 C26.7130923,5.54068486 27.8507053,5.24233765 29.1936333,5.24233765 C31.7747368,5.24233765 33.0778589,6.66826181 33.0778589,9.52230385 L33.0778589,13.332812 C33.0778589,14.3770272 33.1197599,15.1865134 33.2203224,15.8029513 L31.2446888,15.8007576 L31.2446888,15.8007576 Z M30.9388113,10.6476871 C28.4980762,10.6476871 27.2787563,11.2663188 27.2787563,12.7339238 C27.2787563,13.8198199 27.9093668,14.3507024 28.7830032,14.3507024 C29.9017608,14.3507024 30.9388113,13.4578545 30.9388113,12.2447221 L30.9388113,10.6476871 L30.9388113,10.6476871 Z" id="Fill-14"></path>
                        <path d="M37.9677091,3.75060161 C37.2365361,3.75060161 36.6666821,3.15390719 36.6666821,2.36635831 C36.6666821,1.57880943 37.2553916,1.00405231 38.0096101,1.00405231 C38.7617336,1.00405231 39.3713936,1.57880943 39.3504431,2.36635831 C39.3504431,3.19778178 38.7826842,3.75060161 37.9677091,3.75060161 L37.9677091,3.75060161 Z M36.9118031,5.45512941 L39.1074171,5.45512941 L39.1074171,15.8007576 L36.9118031,15.8007576 L36.9118031,5.45512941 Z" id="Fill-15"></path>
                        <polygon id="Fill-16" points="43.0084031 0.707898827 45.2040171 0.707898827 45.2040171 15.8007576 43.0084031 15.8007576"></polygon>
                        <path d="M54.5353765,15.8007576 L54.3698675,14.6095625 L54.311206,14.6095625 C53.6407895,15.5682223 52.6644955,16.0354867 51.424225,16.0354867 C49.6560016,16.0354867 48.3947805,14.7367988 48.3947805,12.9905902 C48.3947805,10.437089 50.5086875,9.1164639 54.1687425,9.1164639 L54.1687425,8.92560944 C54.1687425,7.56330343 53.4773755,6.88105357 52.115592,6.88105357 C51.139298,6.88105357 50.284517,7.13771992 49.5344886,7.64885888 L49.0861475,6.13518555 C50.0016851,5.53849113 51.139298,5.24014392 52.4822261,5.24014392 C55.0633295,5.24014392 56.3685466,6.66606808 56.3685466,9.52011013 L56.3685466,13.3306182 C56.3685466,14.3748335 56.4104477,15.1843196 56.50682,15.8007576 L54.5353765,15.8007576 L54.5353765,15.8007576 Z M54.229499,10.6476871 C51.788764,10.6476871 50.569444,11.2663188 50.569444,12.7339238 C50.569444,13.8198199 51.2000545,14.3507024 52.073691,14.3507024 C53.1924485,14.3507024 54.229499,13.4578545 54.229499,12.2447221 L54.229499,10.6476871 L54.229499,10.6476871 Z" id="Fill-17"></path>
                        <path d="M65.2620403,16.0354867 C63.8604509,16.0354867 62.8254954,15.416855 62.1529839,14.2037226 L62.1110828,14.2037226 L61.9853798,15.8007576 L60.1165938,15.8007576 C60.1752552,14.9715279 60.1962058,14.0326117 60.1962058,13.0125274 L60.1962058,0.707898827 L62.3960099,0.707898827 L62.3960099,6.96880275 L62.4358158,6.96880275 C63.0873769,5.8192885 64.1432828,5.24453138 65.5867733,5.24453138 C67.9667518,5.24453138 69.6344129,7.3746427 69.6344129,10.4809636 C69.6344129,13.6925836 67.7823873,16.0354867 65.2620403,16.0354867 L65.2620403,16.0354867 Z M64.8157944,7.04997074 C63.5524783,7.04997074 62.3960099,8.19948498 62.3960099,9.79652004 L62.3960099,11.6063469 C62.3960099,13.032271 63.4351554,14.2037226 64.7759884,14.2037226 C66.4206038,14.2037226 67.4010879,12.7997357 67.4010879,10.5643254 C67.3989929,8.47808863 66.3807978,7.04997074 64.8157944,7.04997074 L64.8157944,7.04997074 Z" id="Fill-18"></path>
                        <polygon id="Fill-19" points="72.8838378 0.707898827 75.0773567 0.707898827 75.0773567 15.8007576 72.8838378 15.8007576"></polygon>
                        <path d="M87.0275306,11.1807633 L80.4364985,11.1807633 C80.4804946,13.1397638 81.716575,14.2454034 83.545555,14.2454034 C84.523944,14.2454034 85.418531,14.0742925 86.2104605,13.7562017 L86.5519539,15.3532368 C85.6175609,15.7788203 84.5197539,15.9916121 83.2396774,15.9916121 C80.1473814,15.9916121 78.3184014,13.9470562 78.3184014,10.7771171 C78.3184014,7.60498429 80.1913775,5.22040036 82.9945564,5.22040036 C85.5128083,5.22040036 87.1029524,7.17940078 87.1029524,10.1387418 C87.1092376,10.5423881 87.0903821,10.9043534 87.0275306,11.1807633 L87.0275306,11.1807633 Z M85.0162811,9.54204742 C85.0162811,7.94501236 84.2411121,6.81743541 82.8374275,6.81743541 C81.5762065,6.81743541 80.5831521,7.96694966 80.4364985,9.54204742 L85.0162811,9.54204742 L85.0162811,9.54204742 Z" id="Fill-20"></path>
                        <path d="M100.335298,16.0354867 C97.4483169,16.0354867 95.5774359,13.778139 95.5774359,10.713499 C95.5774359,7.51942884 97.4881228,5.24233765 100.500807,5.24233765 C103.343792,5.24233765 105.258669,7.39219254 105.258669,10.5445818 C105.258669,13.778139 103.28513,16.0354867 100.335298,16.0354867 L100.335298,16.0354867 Z M100.4191,6.92273443 C98.8331459,6.92273443 97.8170459,8.4758949 97.8170459,10.6476871 C97.8170459,12.7777984 98.8540964,14.3309589 100.398149,14.3309589 C101.942202,14.3309589 102.979253,12.6703057 102.979253,10.6038125 C102.979253,8.49783219 101.963153,6.92273443 100.4191,6.92273443 L100.4191,6.92273443 Z" id="Fill-21"></path>
                        <path d="M117.062189,15.8007576 L114.870765,15.8007576 L114.870765,9.86013819 C114.870765,8.03056781 114.198254,7.11358889 112.876276,7.11358889 C111.575249,7.11358889 110.678567,8.28504043 110.678567,9.64734643 L110.678567,15.8007576 L108.487143,15.8007576 L108.487143,8.41227674 C108.487143,7.49749155 108.462003,6.51689447 108.403341,5.45293568 L110.334979,5.45293568 L110.437636,7.04997074 L110.500488,7.04997074 C111.085007,5.94433108 112.287567,5.24014392 113.630495,5.24014392 C115.700406,5.24014392 117.062189,6.90079713 117.062189,9.60347185 L117.062189,15.8007576" id="Fill-22"></path>
                        <path d="M131.427957,7.17940078 L129.012363,7.17940078 L129.012363,12.2030413 C129.012363,13.4819856 129.437659,14.1203608 130.290345,14.1203608 C130.675834,14.1203608 131.004757,14.0764862 131.266639,14.0128681 L131.327395,15.7590768 C130.900005,15.9301876 130.328055,16.0157431 129.622023,16.0157431 C127.889415,16.0157431 126.85865,15.0154025 126.85865,12.3960895 L126.85865,7.17940078 L125.41935,7.17940078 L125.41935,5.45512941 L126.85865,5.45512941 L126.85865,3.55974714 L129.012363,2.87749728 L129.012363,5.45293568 L131.427957,5.45293568 L131.427957,7.17940078" id="Fill-23"></path>
                        <path d="M143.055493,15.8007576 L140.857784,15.8007576 L140.857784,9.90401278 C140.857784,8.05250511 140.185273,7.11578262 138.86539,7.11578262 C137.727777,7.11578262 136.671871,7.9252688 136.671871,9.56398471 L136.671871,15.8007576 L134.474162,15.8007576 L134.474162,0.707898827 L136.671871,0.707898827 L136.671871,6.92273443 L136.713772,6.92273443 C137.403044,5.79515748 138.402384,5.24014392 139.68246,5.24014392 C141.775417,5.24014392 143.055493,6.94247799 143.055493,9.64734643 L143.055493,15.8007576" id="Fill-24"></path>
                        <path d="M154.274494,11.1807633 L147.685557,11.1807633 C147.727458,13.1397638 148.963539,14.2454034 150.794614,14.2454034 C151.775098,14.2454034 152.66759,14.0742925 153.455329,13.7562017 L153.798918,15.3532368 C152.86662,15.7788203 151.766718,15.9916121 150.484546,15.9916121 C147.394345,15.9916121 145.565365,13.9470562 145.565365,10.7771171 C145.565365,7.60498429 147.436246,5.22040036 150.239425,5.22040036 C152.759772,5.22040036 154.347821,7.17940078 154.347821,10.1387418 C154.356201,10.5423881 154.335251,10.9043534 154.274494,11.1807633 L154.274494,11.1807633 Z M152.26115,9.54204742 C152.26115,7.94501236 151.490171,6.81743541 150.086486,6.81743541 C148.825265,6.81743541 147.830116,7.96694966 147.685557,9.54204742 L152.26115,9.54204742 L152.26115,9.54204742 Z" id="Fill-25"></path>
                    </g>
                </g>
            </g>
        </g>
    </g>
</svg>