<?xml version="1.0" encoding="UTF-8"?>
<svg width="60px" height="59px" viewBox="0 0 60 59" version="1.1" xmlns="http://www.w3.org/2000/svg" xmlns:xlink="http://www.w3.org/1999/xlink">
    <!-- Generator: Sketch 49.1 (51147) - http://www.bohemiancoding.com/sketch -->
    <title>Fill 34</title>
    <desc>Created with Sketch.</desc>
    <defs></defs>
    <g id="Page-1" stroke="none" stroke-width="1" fill="none" fill-rule="evenodd">
        <g id="landing-page" transform="translate(-344.000000, -1478.000000)" fill="#FFFFFF">
            <g id="github" transform="translate(320.000000, 1460.000000)">
                <path d="M53.998125,18 C37.4325,18 24,31.430625 24,48.001875 C24,61.254375 32.595,72.49875 44.518125,76.46625 C46.018125,76.741875 46.565625,75.815625 46.565625,75.020625 C46.565625,74.308125 46.539375,72.421875 46.524375,69.91875 C38.17875,71.731875 36.418125,65.896875 36.418125,65.896875 C35.055,62.431875 33.088125,61.509375 33.088125,61.509375 C30.36375,59.6475 33.294375,59.685 33.294375,59.685 C36.30375,59.896875 37.888125,62.776875 37.888125,62.776875 C40.565625,67.36125 44.91,66.0375 46.62,65.26875 C46.891875,63.33 47.668125,62.008125 48.525,61.258125 C41.863125,60.500625 34.86,57.928125 34.86,46.4325 C34.86,43.156875 36.028125,40.479375 37.948125,38.38125 C37.63875,37.621875 36.609375,34.573125 38.240625,30.4425 C38.240625,30.4425 40.760625,29.63625 46.490625,33.5175 C48.885,32.851875 51.45,32.52 54.001875,32.506875 C56.55,32.52 59.116875,32.851875 61.513125,33.5175 C67.239375,29.63625 69.75375,30.4425 69.75375,30.4425 C71.390625,34.573125 70.36125,37.621875 70.051875,38.38125 C71.975625,40.479375 73.13625,43.156875 73.13625,46.4325 C73.13625,57.95625 66.121875,60.493125 59.439375,61.235625 C60.515625,62.161875 61.475625,63.991875 61.475625,66.79125 C61.475625,70.801875 61.438125,74.03625 61.438125,75.020625 C61.438125,75.823125 61.978125,76.756875 63.500625,76.4625 C75.4125,72.4875 84,61.250625 84,48.001875 C84,31.430625 70.5675,18 53.998125,18" id="Fill-34"></path>
            </g>
        </g>
    </g>
</svg>